# xmcd
#
# Track frame offsets:
#	150
#	18543
#	30288
#	44087
#	60571
#	86187
#	115765
#	130858
#	140879
#	152356
#	165670
#	173041
#	189045
#	212150
# Disc length: 3046 seconds
# Revision: 1
# Processed by: cddbd v1.5.2PL0 Copyright (c) Steve Scherf et al.
#
# Submitted via: libkcddb 0.21
#
DISCID=b80be40e
DTITLE=Bruno Le Tron - Éric Montbel - Laurence Charrier - Topanga!
DYEAR=2006
DGENRE=Folklore
TTITLE0=L'arlequin de cayenne
TTITLE1=L'année nouvelle
TTITLE2=L'ouest de Nowhere
TTITLE3=Mazurka des 4 soeurs Foray
TTITLE4=Il y aura
TTITLE5=L'air de Topanga - Le dernier gentleman
TTITLE6=L'oushka
TTITLE7=Jardin secret
TTITLE8=Maz l'élégant
TTITLE9=Valse en spirale
TTITLE10=En attendant la neige
TTITLE11=Mazurka du garçon français
TTITLE12=L'absente - L'insolente
TTITLE13=Julie éveille toi donc - Fleur d'acrobates
EXTD=
EXTT0=
EXTT1=
EXTT2=
EXTT3=
EXTT4=
EXTT5=
EXTT6=
EXTT7=
EXTT8=
EXTT9=
EXTT10=
EXTT11=
EXTT12=
EXTT13=
PLAYORDER=
